<?xml version="1.0" standalone="no"?>
<!DOCTYPE svg PUBLIC "-//W3C//DTD SVG 20010904//EN"
 "http://www.w3.org/TR/2001/REC-SVG-20010904/DTD/svg10.dtd">
<svg version="1.0" xmlns="http://www.w3.org/2000/svg"
 width="1043.000000pt" height="495.000000pt" viewBox="0 0 1043.000000 495.000000"
 preserveAspectRatio="xMidYMid meet">
<metadata>
Created by potrace 1.15, written by Peter Selinger 2001-2017
</metadata>
<g transform="translate(0.000000,495.000000) scale(0.100000,-0.100000)"
fill="#000000" stroke="none">
<path d="M5265 4933 c-472 -59 -800 -175 -1155 -408 -505 -332 -884 -863
-1035 -1450 -27 -105 -65 -335 -65 -395 0 -54 -11 -65 -50 -51 -74 25 -149 -3
-163 -61 -3 -13 -17 -57 -32 -98 -15 -41 -38 -117 -51 -167 -13 -51 -29 -105
-36 -120 -6 -16 -13 -37 -15 -47 -2 -11 -15 -56 -28 -101 -14 -44 -25 -87 -25
-93 0 -7 -12 -23 -26 -35 -26 -23 -30 -44 -24 -142 1 -22 -8 -78 -20 -125 -27
-101 -29 -246 -5 -304 8 -20 16 -39 17 -43 1 -5 8 -7 15 -5 7 2 13 -2 13 -8 0
-6 24 -10 58 -10 57 0 57 0 85 44 31 49 55 121 83 244 17 72 22 82 39 80 15
-2 23 -15 31 -53 6 -27 16 -63 22 -78 7 -16 12 -36 12 -46 0 -10 11 -47 24
-83 14 -37 22 -75 19 -91 -3 -15 -1 -27 5 -27 13 0 42 -28 42 -41 0 -12 -77
-12 -308 3 -152 9 -195 15 -200 26 -3 8 3 19 12 24 13 7 14 13 6 23 -34 41 14
622 64 790 22 72 49 300 43 361 -8 81 -47 151 -137 250 -30 33 -88 57 -122 50
-38 -7 -103 -57 -88 -66 8 -5 9 -13 2 -26 -21 -38 -67 -142 -113 -254 -26 -63
-52 -116 -57 -118 -5 -1 -12 12 -16 30 -4 21 -27 55 -61 93 -30 32 -55 66 -55
75 0 13 -7 15 -29 12 -16 -2 -31 0 -35 6 -8 13 23 39 129 113 50 34 81 58 70
54 -11 -4 -85 -32 -165 -62 -80 -29 -167 -63 -195 -75 -27 -11 -113 -46 -190
-78 -292 -121 -342 -143 -585 -263 -269 -132 -517 -282 -617 -371 -140 -127
-205 -223 -205 -306 0 -113 81 -195 274 -278 347 -149 943 -238 1903 -284 337
-16 1718 -16 2165 0 1766 64 3502 212 5090 433 157 21 292 41 300 44 65 20
-1507 -33 -2680 -90 -168 -8 -404 -19 -525 -25 -121 -6 -353 -17 -515 -25
-403 -20 -430 -20 -430 4 0 11 8 22 18 25 22 7 330 26 487 31 51 1 70 10 114
54 57 57 96 113 111 159 12 39 12 44 -6 57 -11 9 -30 13 -46 10 -15 -2 -29 -1
-32 4 -3 4 5 50 18 102 13 52 22 97 19 102 -2 4 0 7 5 7 6 0 13 11 16 24 6 26
19 32 178 81 50 16 95 24 107 20 15 -4 21 -2 21 8 0 8 14 28 30 45 17 18 30
37 30 43 0 6 -12 28 -27 49 -22 31 -33 38 -51 33 -21 -5 -22 -3 -12 22 15 40
13 47 -11 34 -16 -8 -18 -13 -9 -19 7 -4 9 -13 6 -19 -9 -14 -56 -15 -56 -1 0
5 -8 9 -17 8 -48 -4 -60 3 -70 37 -6 19 -7 33 -2 29 27 -16 -7 77 -41 115 -27
29 -39 34 -86 37 -32 2 -54 -1 -54 -7 0 -6 -4 -8 -9 -5 -5 4 -19 -11 -32 -31
-12 -21 -30 -47 -40 -58 -9 -11 -30 -45 -45 -75 -31 -59 -45 -72 -84 -78 -14
-1 -33 -14 -43 -28 -10 -13 -23 -22 -28 -19 -13 8 -69 -23 -69 -39 0 -12 -18
-14 -67 -8 -14 2 -18 42 -4 42 5 0 11 12 14 28 5 22 115 185 138 202 3 3 12
21 19 41 12 33 11 40 -16 95 -29 59 -30 59 -78 62 -49 3 -133 -27 -118 -43 4
-4 -4 -4 -17 0 -21 6 -23 5 -17 -11 4 -10 4 -16 1 -12 -3 3 -26 -13 -49 -36
-28 -26 -39 -44 -32 -48 10 -7 -6 -13 -27 -9 -5 1 -6 -2 -3 -7 3 -5 -6 -20
-19 -32 -14 -13 -25 -29 -25 -35 0 -6 -8 -20 -18 -31 -9 -10 -44 -71 -76 -134
-32 -63 -60 -116 -61 -118 -1 -1 -20 -4 -41 -6 -21 -2 -47 -7 -58 -11 -22 -10
-36 9 -36 50 0 21 -3 26 -9 17 -6 -10 -10 -3 -15 22 -8 40 -49 91 -65 81 -6
-3 -11 -2 -11 3 0 32 -170 17 -190 -16 -5 -9 -10 -14 -10 -11 0 8 -68 -61
-112 -116 -44 -54 -60 -84 -52 -97 4 -6 3 -8 -4 -4 -6 3 -13 -3 -17 -14 -3
-11 -11 -20 -17 -20 -5 0 -8 -6 -5 -14 3 -8 1 -16 -6 -19 -6 -2 -12 -15 -12
-30 -1 -15 -10 -36 -20 -47 -16 -17 -17 -25 -7 -40 15 -24 15 -40 2 -40 -5 0
-10 7 -10 15 0 8 -4 15 -10 15 -5 0 -10 9 -10 21 0 11 -4 18 -9 15 -11 -7 -21
17 -21 50 0 14 -4 22 -10 19 -6 -4 -11 6 -11 22 -1 17 -3 21 -6 11 -5 -22 -23
-24 -23 -4 0 8 9 18 20 21 11 3 20 10 20 15 0 4 20 18 45 30 83 40 116 111 93
203 -12 52 -57 80 -118 74 -50 -4 -175 -61 -184 -83 -3 -8 -11 -14 -18 -14
-16 0 -68 -47 -68 -61 0 -5 -18 -29 -41 -54 -22 -24 -38 -49 -34 -55 3 -5 1
-10 -6 -10 -7 0 -10 -2 -7 -5 9 -9 38 7 38 21 0 8 4 14 10 14 5 0 9 -15 7 -34
-1 -19 -5 -32 -9 -29 -5 2 -8 -5 -8 -16 0 -14 5 -19 15 -15 11 5 15 -1 15 -24
0 -38 17 -78 50 -115 14 -16 25 -34 25 -40 0 -7 -23 -15 -52 -19 -28 -4 -71
-14 -95 -23 -65 -22 -73 -20 -47 16 12 17 23 42 25 56 3 32 -15 83 -29 83 -16
0 -133 -37 -155 -49 -9 -5 -39 -11 -67 -15 -27 -3 -74 -9 -103 -14 l-54 -9 7
46 c15 113 19 125 45 132 14 4 62 19 107 33 96 30 103 31 103 12 0 -22 11 -24
50 -13 35 10 35 10 8 16 -23 5 -25 8 -14 24 7 9 27 18 44 20 37 2 43 22 7 21
-27 0 -35 23 -10 32 8 4 15 11 15 16 0 6 -7 7 -16 4 -14 -5 -15 -1 -10 29 6
31 3 40 -23 65 -18 18 -31 25 -33 18 -3 -8 -7 -6 -11 5 -4 10 3 27 18 45 14
16 22 32 18 36 -4 3 7 3 24 0 24 -5 36 -1 52 15 12 12 28 21 36 21 9 0 38 11
65 25 27 14 60 25 73 25 41 0 94 28 101 52 11 35 14 128 5 122 -19 -11 -8 14
17 41 14 16 27 39 29 53 1 13 6 27 11 31 5 3 10 12 12 20 3 12 1 12 -15 0 -27
-21 -33 -31 -33 -59 0 -19 -3 -22 -9 -11 -7 12 -13 12 -24 3 -17 -15 -28 -6
-19 16 5 15 4 15 -11 3 -9 -7 -25 -10 -34 -6 -17 6 -17 7 0 20 28 20 2 29 -28
9 -14 -9 -25 -23 -25 -30 0 -8 -5 -14 -11 -14 -6 0 -7 8 -2 23 4 12 7 34 7 50
-1 15 3 27 7 27 5 0 9 10 9 22 0 16 3 19 11 11 12 -12 39 -7 39 7 0 17 -59 3
-93 -23 -35 -26 -37 -27 -37 -8 0 12 7 21 15 21 9 0 19 8 22 18 4 9 17 31 30
48 27 36 28 44 9 44 -7 0 -20 -14 -27 -32 -14 -34 -43 -68 -58 -68 -5 0 -12
-28 -16 -62 -9 -81 -20 -102 -48 -93 -12 3 -108 8 -213 11 -190 4 -192 4 -225
-21 -19 -13 -47 -32 -63 -41 -39 -22 -60 -42 -91 -88 -24 -35 -25 -41 -13 -74
7 -21 16 -41 20 -46 13 -15 10 -42 -14 -124 -26 -92 -33 -104 -35 -54 -2 59
-49 191 -94 267 -23 39 -47 72 -53 74 -5 2 -20 14 -32 26 -13 13 -25 20 -28
17 -3 -3 -6 -1 -6 5 0 6 -23 20 -51 33 l-52 22 6 91 c28 415 236 875 539 1188
117 122 291 262 424 342 443 267 991 353 1504 237 296 -66 606 -220 840 -415
84 -71 228 -217 280 -285 19 -25 37 -47 41 -50 12 -10 107 -157 151 -235 106
-187 179 -397 225 -645 13 -73 17 -148 17 -325 0 -212 -2 -240 -28 -360 -43
-207 -81 -318 -171 -510 -21 -44 -52 -102 -69 -130 -18 -27 -36 -56 -40 -62
-6 -10 17 -12 106 -9 286 11 405 17 423 21 38 8 149 302 200 533 45 197 58
350 52 597 -6 245 -22 361 -82 579 -161 587 -549 1105 -1074 1436 -314 197
-642 314 -1031 366 -95 12 -444 17 -525 7z m-2762 -2350 c40 -43 57 -94 57
-175 0 -86 -21 -232 -49 -339 -11 -42 -27 -136 -35 -210 -9 -74 -21 -168 -26
-209 -6 -41 -12 -133 -15 -205 -2 -71 -5 -141 -6 -155 -3 -56 -29 125 -45 308
-12 150 -15 255 -10 440 l6 243 -24 -18 c-15 -12 -31 -41 -42 -80 -10 -35 -22
-63 -26 -63 -4 0 -8 -7 -8 -15 0 -29 -89 -302 -111 -341 -38 -66 -48 -74 -95
-74 -34 0 -51 7 -78 31 -46 39 -56 77 -63 228 l-6 124 -20 -39 c-27 -53 -35
-84 -52 -199 -8 -55 -27 -147 -43 -205 -17 -58 -35 -136 -42 -175 -16 -92 -26
-115 -49 -115 -39 0 -43 21 -32 155 6 69 11 165 11 213 0 218 61 540 121 648
35 62 55 67 124 35 91 -42 105 -84 106 -316 0 -93 4 -188 8 -210 l7 -40 24 45
c20 39 113 258 170 400 69 176 139 308 172 326 33 19 41 17 71 -13z m488 -77
c15 -3 39 -23 55 -43 29 -38 29 -38 28 -178 -1 -81 -9 -180 -18 -235 -28 -153
-34 -369 -16 -500 5 -36 9 -90 9 -120 l-1 -55 -20 65 c-17 56 -58 209 -73 277
-4 19 -9 21 -28 14 -12 -5 -50 -12 -83 -16 -66 -7 -84 -25 -84 -80 0 -26 -41
-190 -58 -236 -12 -30 -32 -41 -52 -29 -18 11 -7 175 19 290 12 51 18 101 14
126 -4 33 -2 44 14 55 11 8 25 37 32 64 19 80 110 381 147 489 38 110 49 129
73 122 9 -2 28 -7 42 -10z m476 -55 c59 -12 142 -65 182 -117 83 -109 103
-260 55 -409 -37 -114 -40 -119 -129 -210 -90 -92 -172 -150 -227 -159 -23 -4
-51 -20 -73 -41 -19 -19 -42 -35 -50 -35 -18 0 -19 12 -3 28 8 8 11 66 10 189
-2 198 6 293 39 463 23 119 25 140 14 202 -7 35 -5 37 34 57 23 12 41 26 41
31 0 12 49 12 107 1z m983 -22 c63 -8 100 -15 83 -17 -18 -2 -33 -7 -33 -12 0
-13 -43 -34 -119 -59 -36 -12 -72 -27 -80 -35 -9 -8 -41 -21 -71 -29 -30 -8
-73 -23 -95 -33 -36 -17 -42 -26 -66 -99 -41 -121 -43 -118 45 -110 41 4 98 4
127 0 l52 -7 -24 -19 c-30 -23 -131 -57 -201 -67 l-53 -7 -17 -85 c-35 -173
-20 -240 51 -240 49 0 191 26 254 46 27 9 51 13 55 10 7 -7 -63 -76 -114 -112
-65 -46 -112 -64 -172 -64 -224 0 -265 181 -150 653 29 119 30 128 14 145 -26
29 -11 77 30 97 18 8 36 20 40 26 15 25 66 34 195 33 74 -1 186 -7 249 -15z
m1550 -98 c0 -7 -14 -30 -30 -50 -37 -43 -36 -42 -82 -113 -21 -32 -38 -62
-38 -66 0 -5 -9 -17 -20 -27 -11 -10 -20 -24 -20 -32 0 -7 -13 -34 -30 -61
-18 -29 -26 -50 -20 -56 6 -6 65 -12 132 -14 162 -5 178 -20 63 -58 -27 -9
-86 -34 -131 -55 -45 -22 -95 -42 -113 -45 -26 -5 -31 -11 -31 -35 0 -15 -6
-56 -14 -91 -8 -35 -18 -145 -22 -245 -6 -159 -9 -185 -25 -199 -17 -16 -19
-15 -26 2 -10 24 -10 382 0 497 l7 87 -32 1 c-44 1 -99 22 -112 42 -17 26 10
44 93 62 41 8 75 17 76 18 1 1 11 29 24 62 53 143 174 321 263 385 33 24 42
26 63 17 14 -7 25 -18 25 -26z m-4380 -67 c0 -9 -9 -28 -19 -42 -11 -17 -17
-39 -15 -57 2 -16 -3 -82 -11 -145 -8 -63 -15 -162 -16 -220 -2 -162 -15 -279
-35 -301 -16 -18 -16 -20 -1 -37 22 -24 22 -42 1 -42 -34 0 -146 65 -193 112
-73 73 -86 106 -85 213 0 79 4 97 28 145 52 99 108 173 216 283 104 105 130
123 130 91z m4787 -26 c19 -25 23 -63 11 -116 -14 -66 -12 -68 96 -77 121 -11
133 -19 61 -39 -73 -20 -159 -53 -201 -78 -34 -20 -39 -33 -85 -207 -34 -130
-32 -163 12 -190 l30 -18 -26 -31 c-34 -40 -57 -47 -95 -27 -68 35 -81 151
-36 322 14 56 26 106 26 111 0 6 -17 8 -40 5 -35 -5 -40 -3 -40 14 0 15 -9 22
-30 27 -16 3 -30 12 -30 19 0 16 75 52 143 68 52 13 54 14 103 127 18 40 38
79 44 87 15 18 44 19 57 3z m-1543 -194 c8 -22 0 -32 -37 -48 -50 -21 -147
-122 -147 -153 0 -16 20 -50 54 -92 81 -98 99 -166 54 -195 -48 -31 -302 -59
-336 -37 -23 14 53 38 200 61 43 7 83 19 89 26 13 16 -8 50 -73 119 -85 89
-87 178 -5 251 73 67 187 105 201 68z m421 -12 c16 -12 35 -50 35 -72 0 -11 4
-20 9 -20 12 0 41 -134 40 -185 -1 -92 -33 -175 -86 -230 -54 -54 -115 -91
-134 -79 -6 3 -15 1 -22 -4 -7 -6 -31 -8 -54 -5 -78 10 -116 80 -116 214 0
125 164 370 257 382 55 7 61 7 71 -1z m-1521 -229 c3 -21 8 -66 11 -99 3 -34
16 -86 29 -116 23 -52 88 -122 137 -148 13 -7 34 -25 46 -39 18 -21 21 -22 17
-6 -5 19 1 20 77 21 45 1 84 6 88 12 3 5 17 13 31 17 14 4 41 20 60 35 48 37
70 44 70 21 0 -30 41 -58 96 -64 52 -6 243 13 328 33 47 10 104 55 119 92 8
19 24 -7 31 -51 12 -75 108 -151 193 -151 22 0 61 6 87 14 47 14 47 14 82 -16
19 -16 34 -37 34 -45 0 -9 6 -13 14 -10 37 14 84 17 111 7 21 -8 31 -8 33 -1
2 6 8 11 13 11 6 0 7 -4 4 -10 -4 -6 5 -10 19 -10 19 0 26 -5 26 -19 0 -26
-18 -28 -365 -41 -805 -30 -1901 -51 -1977 -36 -29 5 -38 12 -38 26 0 11 7 20
15 20 8 0 15 5 15 10 0 6 -4 10 -8 10 -12 0 -42 66 -42 91 0 18 4 20 25 15 16
-4 34 -1 48 9 39 27 55 19 88 -47 18 -35 39 -69 48 -76 12 -9 76 -12 274 -10
143 2 263 5 267 8 5 3 -23 54 -62 114 -86 133 -158 272 -158 305 0 13 15 43
34 66 19 23 38 54 42 68 9 39 31 33 38 -10z m2339 -10 c-3 -10 -10 -23 -15
-30 -6 -7 -7 -17 -3 -23 3 -5 2 -10 -3 -10 -15 0 -23 -43 -9 -52 9 -6 8 -10
-3 -18 -24 -16 -40 -11 -40 12 0 12 -3 18 -7 15 -3 -4 -12 -2 -20 5 -21 17
-38 -4 -24 -30 9 -18 8 -19 -11 -14 -14 3 -19 1 -14 -6 4 -7 3 -12 -2 -12 -17
0 -22 13 -9 28 10 13 8 14 -15 10 -15 -3 -25 -1 -22 3 3 5 2 9 -3 9 -4 0 -14
-14 -22 -32 -13 -30 -15 -30 -28 -12 -8 10 -19 18 -24 17 -5 -2 -9 2 -9 7 0 6
5 10 10 10 6 0 10 6 10 14 0 16 51 50 90 60 14 4 34 11 45 15 11 5 39 14 63
21 23 7 42 17 42 22 0 4 7 8 15 8 9 0 12 -6 8 -17z m-3858 -45 c2 -7 9 -86 15
-175 6 -89 13 -173 16 -187 2 -13 0 -36 -5 -49 -8 -20 -6 -29 9 -42 11 -10 17
-22 14 -26 -12 -20 -184 -3 -392 38 -85 16 -110 34 -81 57 9 7 14 32 14 76 1
78 41 230 62 230 7 0 21 -4 31 -10 39 -22 139 -48 170 -43 36 6 108 79 118
120 7 25 22 31 29 11z"/>
<path d="M2882 2215 c-71 -293 -75 -329 -39 -339 12 -3 37 -6 55 -6 l32 0 2
78 c3 111 -3 310 -11 357 -7 37 -9 32 -39 -90z"/>
<path d="M3386 2281 c-4 -5 -11 -85 -16 -178 -6 -92 -14 -199 -20 -238 -25
-181 -25 -235 3 -235 32 0 211 176 254 249 24 41 27 57 27 136 1 50 -5 109
-12 133 -13 42 -60 105 -91 121 -27 14 -138 24 -145 12z"/>
<path d="M5210 1904 c-73 -62 -170 -283 -140 -319 29 -35 110 -9 154 48 38 49
55 98 62 175 12 122 -11 150 -76 96z"/>
<path d="M5069 3840 c-12 -37 -23 -49 -58 -67 -24 -12 -55 -30 -69 -40 -38
-26 -122 -116 -122 -130 0 -7 -4 -13 -10 -13 -5 0 -10 -5 -10 -12 0 -6 -11
-25 -24 -42 -12 -17 -31 -46 -40 -64 -9 -18 -26 -42 -37 -53 -16 -16 -17 -20
-5 -25 20 -7 49 22 66 66 22 55 40 79 56 73 12 -4 14 0 9 20 -5 19 0 33 18 54
14 15 36 41 50 58 21 25 27 27 41 16 22 -18 53 -6 36 14 -16 19 -10 27 44 53
60 31 91 73 78 110 -9 27 -9 27 -23 -18z"/>
<path d="M6797 3775 c33 -39 74 -84 90 -102 51 -57 61 -70 123 -163 368 -547
417 -1242 130 -1835 -54 -111 -150 -270 -174 -287 -6 -4 -1 -8 12 -8 13 0 21
4 17 9 -3 6 1 13 9 18 26 15 136 206 186 323 85 199 134 405 150 634 18 241
-25 539 -105 740 -14 34 -25 66 -25 70 0 13 -117 242 -153 297 -67 105 -236
307 -297 354 -14 11 3 -12 37 -50z"/>
<path d="M6400 2945 c0 -7 10 -15 22 -17 35 -5 32 -25 -7 -32 -20 -4 -35 -13
-35 -21 0 -7 -3 -21 -6 -29 -5 -12 -2 -15 10 -10 8 3 18 14 21 25 8 25 25 25
25 0 0 -20 -56 -61 -83 -61 -22 0 -31 -18 -18 -34 8 -10 5 -16 -15 -25 -15 -6
-25 -13 -23 -15 9 -7 78 -14 77 -8 -1 4 2 21 6 39 8 35 36 54 36 24 0 -25 11
-33 24 -17 8 10 18 12 35 5 19 -7 22 -14 17 -35 -11 -43 15 -23 34 26 10 25
27 50 39 56 12 6 33 21 47 33 13 11 26 21 28 21 7 0 -7 -50 -15 -56 -5 -3 -9
-9 -9 -15 0 -17 22 -9 50 19 54 53 60 56 74 36 13 -17 15 -17 30 -2 21 22 9
28 -61 33 -109 7 -188 23 -245 48 -44 20 -58 22 -58 12z"/>
<path d="M7499 1085 c-3 -2 -40 -5 -82 -6 -43 -1 -80 -5 -82 -10 -3 -4 -27 -7
-53 -7 -38 1 -168 -8 -252 -17 -8 -1 -41 -2 -72 -3 -55 -2 -59 -4 -160 -87
-136 -112 -132 -109 -278 -198 -211 -129 -487 -223 -768 -263 -140 -19 -455
-14 -595 10 -299 52 -565 161 -824 337 -64 44 -77 49 -127 49 -31 0 -56 -4
-56 -8 0 -4 18 -26 40 -47 51 -50 68 -101 49 -147 -26 -63 -94 -98 -153 -78
-36 11 -179 136 -174 151 2 4 21 27 43 51 77 83 90 76 -137 71 -112 -3 -207
-5 -211 -6 -16 -4 190 -212 296 -298 354 -290 760 -471 1217 -544 138 -23 486
-31 622 -15 223 25 338 50 548 120 451 149 838 419 1149 800 78 96 78 97 96
124 17 25 17 26 -7 26 -14 0 -27 -2 -29 -5z m-459 -196 c147 -39 152 -42 120
-69 -18 -16 -33 -20 -55 -16 -27 5 -37 0 -79 -43 -42 -42 -47 -53 -42 -78 5
-22 2 -34 -13 -47 -21 -19 -41 -14 -41 10 0 8 -14 64 -31 125 -29 105 -30 112
-13 130 9 10 22 19 27 19 6 0 63 -14 127 -31z m-211 -234 c55 -74 59 -81 44
-97 -22 -25 -38 -22 -59 10 -9 15 -42 57 -72 94 l-54 68 23 19 c29 24 29 24
118 -94z m-2379 -20 c55 -36 100 -69 100 -74 0 -5 -6 -14 -14 -20 -11 -9 -30
-2 -90 35 -57 35 -80 44 -88 36 -14 -14 3 -37 44 -58 30 -16 36 -35 15 -52 -9
-8 -25 -3 -60 18 -46 29 -47 30 -58 9 -6 -11 -9 -22 -7 -23 2 -2 36 -24 76
-49 39 -26 72 -50 72 -55 0 -4 -6 -16 -12 -25 -12 -15 -23 -11 -115 49 -57 37
-103 72 -103 79 0 8 6 20 13 27 6 8 17 21 22 30 47 74 91 138 97 138 4 0 53
-29 108 -65z m2209 -1 c12 -15 21 -35 21 -45 0 -10 8 -23 18 -28 9 -5 25 -22
34 -38 14 -24 15 -33 5 -54 -13 -26 -191 -134 -206 -125 -5 3 -35 49 -66 101
-41 67 -55 99 -48 106 23 23 179 108 200 108 12 1 31 -11 42 -25z m-299 -136
c0 -7 17 -55 37 -106 36 -91 37 -95 18 -108 -26 -19 -34 -18 -44 9 -5 12 -18
42 -29 67 l-19 45 -20 -65 c-13 -40 -27 -66 -36 -68 -9 -2 -40 13 -68 32 -29
20 -55 34 -57 31 -2 -2 6 -30 18 -61 20 -55 20 -59 4 -71 -10 -7 -21 -13 -24
-13 -12 0 -93 218 -86 229 16 25 57 9 172 -66 20 -13 22 -10 49 72 26 81 29
85 56 85 16 0 29 -5 29 -12z m-1528 -42 c135 -36 156 -51 144 -100 -6 -24 -11
-27 -39 -24 -26 2 -32 7 -32 27 0 21 -8 26 -58 38 -32 8 -60 13 -63 10 -6 -5
-44 -109 -44 -118 0 -9 122 -39 132 -33 4 3 8 12 8 20 0 17 31 19 48 2 17 -17
15 -42 -7 -69 -18 -23 -21 -23 -72 -10 -143 35 -169 45 -175 63 -6 19 40 172
59 196 12 16 34 15 99 -2z m367 -80 c151 -19 154 -22 136 -134 -7 -46 -19 -90
-26 -98 -7 -8 -28 -14 -53 -13 -68 1 -215 24 -227 36 -18 18 8 180 32 204 11
11 20 19 22 19 1 0 53 -7 116 -14z m788 -9 c6 -13 17 -58 23 -101 11 -65 11
-79 -1 -91 -8 -7 -67 -21 -133 -30 -140 -19 -146 -16 -164 68 -22 109 -23 124
-7 137 19 16 137 37 216 39 49 1 57 -2 66 -22z m-497 -96 c0 -104 -3 -101 106
-101 73 0 74 -1 74 -25 l0 -26 -122 3 -123 3 -3 104 c-1 58 0 111 2 118 3 7
19 13 36 13 l30 0 0 -89z"/>
<path d="M5107 314 c-3 -11 -9 -40 -13 -66 -5 -37 -3 -48 7 -49 8 0 45 -3 82
-8 38 -4 70 -4 72 -1 8 13 22 121 16 124 -3 2 -40 7 -82 11 -70 6 -77 5 -82
-11z"/>
<path d="M5826 329 c-32 -5 -60 -10 -62 -12 -2 -2 1 -32 7 -66 l11 -63 57 6
c117 14 114 12 106 65 -12 90 -6 86 -119 70z"/>
<path d="M6572 990 c-12 -11 -25 -20 -31 -20 -5 0 -11 -3 -13 -8 -13 -29 -298
-178 -423 -220 -247 -84 -331 -97 -615 -97 -264 0 -340 10 -535 71 -138 43
-374 149 -390 175 -4 5 -13 9 -22 9 -38 0 90 -76 228 -136 510 -220 1093 -194
1589 69 132 71 281 176 249 177 -8 0 -25 -9 -37 -20z"/>
<path d="M4042 807 c-23 -23 -42 -48 -42 -54 0 -19 87 -83 113 -83 47 0 83 53
62 93 -12 24 -73 86 -85 87 -3 0 -25 -19 -48 -43z"/>
</g>
</svg>
